<svg xmlns="http://www.w3.org/2000/svg" viewBox="0 0 512 512"><path d="M502 204h-54.132c5.786-7.967 9.211-17.755 9.211-28.333v-13.333c0-15.072-12.262-27.333-27.333-27.333h-57.333c-15.071 0-27.333 12.262-27.333 27.333v13.333c0 .074.005.148.006.222 0 .038-.006.074-.006.112 0 .114.013.224.017.336a48.063 48.063 0 009.194 27.664H134V93.62c0-11.451-7.489-21.18-17.825-24.561V53.176C116.175 42.602 107.573 34 97 34H71c-10.574 0-19.176 8.602-19.176 19.176V69.06C41.489 72.44 34 82.169 34 93.62V204H10c-5.523 0-10 4.477-10 10v268c0 16.542 13.458 30 30 30s30-13.458 30-30V304h263.5c5.523 0 10-4.478 10-10s-4.477-10-10-10H266v-60h226v60h-95.25c-5.523 0-10 4.478-10 10s4.477 10 10 10H452v178c0 16.542 13.458 30 30 30s30-13.458 30-30V214c0-5.523-4.477-10-10-10zM71.825 54h24.351v13.781H71.825V54zM54 93.62c0-3.22 2.62-5.839 5.839-5.839h48.321c3.22 0 5.839 2.62 5.839 5.839V204H54V93.62zM40 482c0 5.514-4.486 10-10 10s-10-4.486-10-10V304h20v178zm206-198H20v-60h226v60zm162.746-80h-15.334c-11.977 0-22.235-7.474-26.373-18h68.081c-4.139 10.526-14.397 18-26.374 18zm28.332-38h-72v-3.667c.001-4.043 3.291-7.333 7.334-7.333h57.333c4.044 0 7.333 3.29 7.333 7.333V166zM492 482c0 5.514-4.486 10-10 10s-10-4.486-10-10V304h20v178z"/><path d="M369.9 286.93c-1.86-1.86-4.44-2.93-7.07-2.93s-5.21 1.069-7.07 2.93c-1.86 1.861-2.93 4.44-2.93 7.07s1.07 5.21 2.93 7.069c1.86 1.86 4.44 2.931 7.07 2.931s5.21-1.07 7.07-2.931c1.86-1.859 2.93-4.439 2.93-7.069s-1.07-5.21-2.93-7.07zM387.5 246h-17c-5.523 0-10 4.477-10 10 0 5.522 4.477 10 10 10h17c5.523 0 10-4.478 10-10 0-5.523-4.477-10-10-10zM141.5 246h-17c-5.523 0-10 4.477-10 10 0 5.522 4.477 10 10 10h17c5.523 0 10-4.478 10-10 0-5.523-4.477-10-10-10zM328 348H184c-18.748 0-34 15.252-34 34 0 15.269 10.118 28.217 24 32.497V502c0 5.522 4.477 10 10 10s10-4.478 10-10v-86h124v22h-62c-5.523 0-10 4.478-10 10s4.477 10 10 10h62v44c0 5.522 4.477 10 10 10s10-4.478 10-10v-87.503c13.882-4.281 24-17.228 24-32.497 0-18.748-15.252-34-34-34zm0 48H184c-7.72 0-14-6.28-14-14s6.28-14 14-14h144c7.72 0 14 6.28 14 14s-6.28 14-14 14z"/><path d="M225.74 440.93a10.09 10.09 0 00-7.07-2.93c-2.64 0-5.21 1.069-7.07 2.93-1.87 1.86-2.93 4.44-2.93 7.07s1.06 5.21 2.93 7.069c1.86 1.86 4.44 2.931 7.07 2.931s5.2-1.07 7.07-2.931c1.86-1.859 2.93-4.439 2.93-7.069s-1.07-5.21-2.93-7.07zM256 0c-47.42 0-86 38.58-86 86v16c0 47.42 38.58 86 86 86s86-38.58 86-86V86c0-47.42-38.58-86-86-86zm66 102c0 36.393-29.607 66-66 66a65.679 65.679 0 01-22.916-4.109l49.82-49.82c3.905-3.905 3.905-10.237 0-14.142-3.906-3.906-10.237-3.904-14.142 0l-53.747 53.747C199.79 141.574 190 122.915 190 102V86c0-36.393 29.607-66 66-66s66 29.607 66 66v16z"/><path d="M282.05 40.618c-3.905-3.905-10.237-3.905-14.142 0l-45.472 45.471c-3.905 3.905-3.905 10.237 0 14.142a9.966 9.966 0 007.071 2.929 9.97 9.97 0 007.071-2.929L282.05 54.76c3.905-3.905 3.905-10.237 0-14.142z"/></svg>