<svg xmlns="http://www.w3.org/2000/svg" viewBox="0 0 117.25 116.57"><g data-name="Слой 2"><path d="M58.17 92.54v24c30.64-.14 55.28-5.46 55.28-12s-24.64-11.87-55.28-12z" fill="#231f20" opacity=".15"/><path d="M113.46 44c-1.13-1.73-2.28-5.88-3.48-6.47-6.69-14.15-19-25.94-34-31 6.53.39 9.32 4.16 13 6.33 10.61 5.71 18.65 15.62 23.18 25.61a56.48 56.48 0 0 0-6.82-11.26 44.75 44.75 0 0 1 8.2 16.8zm1.71 12.75a39.74 39.74 0 0 1 .27 4.62c-.09-1.57-.19-3.11-.27-4.62zM66 9.32a54.68 54.68 0 0 0-20.71 1c7.41-2 15.91-3.06 23.43-.94L66 9.32zm9.48 3.23A39.31 39.31 0 0 1 92.37 23a43.68 43.68 0 0 0-16.9-10.42zM22.35 16c.8-.66 1.6-1.28 2.4-1.87-.81.61-1.61 1.24-2.4 1.87zm83.93 67.9a7.8 7.8 0 0 0-1.57 2.61c1.41-1.6 3.64-5.14 4.65-6l-.19 2c4.06-4.42 6.65-15.09 8.07-21.07-2.53 14.5-9.68 30.28-22.91 41.32-13 11.09-32.16 15.92-48.64 11.5A62.44 62.44 0 0 1 3.61 81.5C2 78.48.21 70.37.27 64.54A65.47 65.47 0 0 1 5 34C14.13 13.41 35.88.25 59.6 0c4.86.15 10.79 2.62-.41 2.82a72.31 72.31 0 0 0-21.31 5.4 57 57 0 0 1 14.58-3.84c-2.14.43-4.3.82-6.17 1.26A63.08 63.08 0 0 1 75.91 7.2a62.42 62.42 0 0 0-41.56 5.31C21.52 19.09 11.44 31 7.67 44.31 11 37.42 15.12 27.79 21 24A55.82 55.82 0 0 0 5.57 57.48c0-1-.09-1.89 0-2.82-1.85 7.88-.36 16.65 2.1 24.23a55.81 55.81 0 0 1-2-21.41c0 3.25.06 6.66.41 10.75.19-2.25.17-5.43.51-8.57a48.11 48.11 0 0 1 2-12.17 41.29 41.29 0 0 0-.73 18c-.3-8.36 1.14-17.05 4.7-24.61A51.32 51.32 0 0 0 9.13 54.1a50.67 50.67 0 0 0 1.26 23l-.29-.85a14.42 14.42 0 0 0 .59 1.69 53.4 53.4 0 0 0 3.6 8.55A30.51 30.51 0 0 0 19.4 93l.83 1c-.67-.56-1.14-.73-.17.64 4.2 6 11.06 10.09 18.14 14.3a25.47 25.47 0 0 0 7.8 2.74 2.72 2.72 0 0 0 1.69.33c.67.11 1.34.29 2 .36 1.66.22 3.32.49 5 .54-1.61-.19-3.28-.38-5-.54-.63-.08-1.22-.27-1.84-.39a4.42 4.42 0 0 1 1.84 0A54.06 54.06 0 0 1 20.23 94c.62.41 1.43 1 1.8 1.26A24 24 0 0 1 19.4 93a53.69 53.69 0 0 1-6.24-9.69 16.81 16.81 0 0 0 1.89 2.56A53.92 53.92 0 0 1 9.13 54.1a50.7 50.7 0 0 1 13.63-26.75 40 40 0 0 0-10.2 13.53c5.92-14.47 19.16-26.11 34.55-29.15a36.09 36.09 0 0 0-5.66 3.57 26.8 26.8 0 0 1 4.63-1.84l.84-.2a48 48 0 0 0-5.57 2.12 6.83 6.83 0 0 0-1.22 1.26c.26.29 4.78-1.06 2.3.13-8.56 4.86-14.49 9-15.16 13.74 0 .07.12.08.33 0A44.51 44.51 0 0 1 106.36 59a45.89 45.89 0 0 1-.39 5.82c.27-.7.54-1.37.82-2.21.26 8.34-3.8 16.94-7 24.21 6.38-7.3 8.67-20.65 10.7-22 2.92-1.29-1.32 14.09-5.58 20.76l1.34-1.67zM32.79 10.61v.08c.75-.42 1.5-.81 2.26-1.17-.74.35-1.48.71-2.21 1.09.66-1.06 4.76-2.74 6.57-3.81a48.24 48.24 0 0 0-14.6 7.33 58.56 58.56 0 0 1 7.39-4.85A57.64 57.64 0 0 0 8.26 33.59c-1.89 4-5.86 6.94-5.85 13.76a62 62 0 0 1 30.38-36.74zm-5.34 77.08l.17-.22c-.52-.63-1-1.27-1.52-1.92a11 11 0 0 1 .6 1.79 16.43 16.43 0 0 1 1.89 1.39 5.79 5.79 0 0 0-1.14-1zm23.35 14.44l.28.2h.44l-.71-.17zm6.85 1.18l2 .42a2.85 2.85 0 0 0 .53-.26c-.83 0-1.67-.08-2.49-.16zM69.07 13a48.4 48.4 0 0 1 12.52 3.92 39.59 39.59 0 0 1 12.57 10.36A50 50 0 0 0 69.07 13z" fill="#00aeef"/><path d="M69.7 61.5h-8v28.84H49.8V61.5h-6v-9.95h6v-6c0-8.11 3.37-12.93 12.94-12.93h8v9.98h-5c-3.72 0-4 1.39-4 4v5h9l-1.04 9.9z"/></g></svg>