<?xml version="1.0" encoding="iso-8859-1"?>
<!-- Generator: Adobe Illustrator 19.0.0, SVG Export Plug-In . SVG Version: 6.00 Build 0)  -->
<svg version="1.1" id="Layer_1" xmlns="http://www.w3.org/2000/svg" xmlns:xlink="http://www.w3.org/1999/xlink" x="0px" y="0px"
	 viewBox="0 0 512 512" style="enable-background:new 0 0 512 512;" xml:space="preserve">
<g>
	<g>
		<path d="M437.02,74.982C388.667,26.628,324.38,0,256,0S123.333,26.628,74.98,74.982C26.628,123.333,0,187.619,0,256
			s26.628,132.667,74.98,181.019C123.333,485.372,187.62,512,256,512s132.667-26.628,181.02-74.981
			C485.372,388.667,512,324.381,512,256S485.372,123.333,437.02,74.982z M256,491.602c-129.911,0-235.602-105.69-235.602-235.602
			S126.089,20.398,256,20.398S491.602,126.089,491.602,256S385.911,491.602,256,491.602z"/>
	</g>
</g>
<g>
	<g>
		<path d="M345.753,357.992h-11.219c-5.633,0-10.199,4.567-10.199,10.199c0,5.632,4.566,10.199,10.199,10.199h11.219
			c5.633,0,10.199-4.567,10.199-10.199C355.952,362.559,351.386,357.992,345.753,357.992z"/>
	</g>
</g>
<g>
	<g>
		<path d="M438.923,302.959c-1.925-2.594-4.963-4.122-8.192-4.122H81.269c-3.229,0-6.267,1.529-8.192,4.122
			c-1.924,2.594-2.506,5.945-1.569,9.035c11.746,38.749,36.115,73.575,68.617,98.061c33.611,25.324,73.68,38.709,115.874,38.709
			s82.263-13.385,115.874-38.708c32.502-24.487,56.871-59.312,68.617-98.061C441.429,308.904,440.846,305.553,438.923,302.959z
			 M256,428.367c-47.078,0-90.292-18.612-121.736-49.976h160.493c5.633,0,10.199-4.567,10.199-10.199
			c0-5.632-4.566-10.199-10.199-10.199H116.81c-8.569-11.768-15.736-24.75-21.219-38.757h320.82
			C390.642,385.055,327.818,428.367,256,428.367z"/>
	</g>
</g>
<g>
	<g>
		<path d="M215.666,136.009c-9.539-23.216-26.109-37.077-44.32-37.077c-29.454,0-52.526,35.616-52.526,81.084
			c0,41.867,19.424,75.727,46.187,80.513c2.119,0.379,4.252,0.571,6.339,0.571c29.454,0,52.526-35.616,52.526-81.084
			C223.872,164.291,221.035,149.074,215.666,136.009z M149.94,224.442l-0.006-0.007c-6.29-10.681-10.714-26.062-10.714-44.419
			c0-35.762,16.932-60.685,32.128-60.685c6.483,0,13.081,4.353,18.586,11.901l0.015,0.019c-23.616,8.03-40.784,39.893-40.784,79.107
			C149.164,215.115,149.429,219.823,149.94,224.442z M174.003,240.452c-2.915-9.179-4.441-19.454-4.441-30.094
			c0-33.689,15.026-57.759,29.472-60.436c2.915,9.179,4.441,19.454,4.441,30.094C203.474,213.705,188.448,237.775,174.003,240.452z"
			/>
	</g>
</g>
<g>
	<g>
		<path d="M384.463,136.009c-9.539-23.216-26.109-37.077-44.32-37.077c-29.454,0-52.526,35.616-52.526,81.084
			c0,41.867,19.424,75.727,46.187,80.513c2.119,0.379,4.252,0.571,6.339,0.571c29.454,0,52.526-35.616,52.526-81.084
			C392.669,164.291,389.832,149.074,384.463,136.009z M318.736,224.442l-0.006-0.007c-6.29-10.681-10.714-26.062-10.714-44.419
			c0-35.762,16.932-60.685,32.128-60.685c6.483,0,13.081,4.353,18.586,11.901l0.015,0.019c-23.616,8.03-40.784,39.893-40.784,79.107
			C317.961,215.115,318.225,219.823,318.736,224.442z M342.799,240.452c-2.915-9.179-4.441-19.454-4.441-30.094
			c0-33.689,15.026-57.759,29.472-60.436c2.915,9.179,4.441,19.454,4.441,30.094C372.271,213.705,357.244,237.775,342.799,240.452z"
			/>
	</g>
</g>
<g>
</g>
<g>
</g>
<g>
</g>
<g>
</g>
<g>
</g>
<g>
</g>
<g>
</g>
<g>
</g>
<g>
</g>
<g>
</g>
<g>
</g>
<g>
</g>
<g>
</g>
<g>
</g>
<g>
</g>
</svg>
