<svg height="512pt" viewBox="0 0 512 512" width="512pt" xmlns="http://www.w3.org/2000/svg"><path d="m373.59375 148.835938c-2.558594 0-5.117188-.976563-7.070312-2.929688l-.214844-.214844c-3.90625-3.90625-3.90625-10.238281 0-14.144531 3.90625-3.902344 10.238281-3.902344 14.144531 0l.210937.214844c3.90625 3.90625 3.90625 10.238281 0 14.144531-1.953124 1.953125-4.511718 2.929688-7.070312 2.929688zm0 0"/><path d="m256 431.917969c-45.070312 0-90.140625-17.15625-124.449219-51.46875-68.625-68.621094-68.625-180.277344 0-248.898438 28.386719-28.390625 64.429688-45.816406 104.230469-50.394531 38.613281-4.4375 78.089844 4.125 111.167969 24.117188 4.726562 2.859374 6.242187 9.003906 3.386719 13.734374-2.859376 4.722657-9.003907 6.238282-13.730469 3.382813-61.511719-37.175781-140.015625-27.59375-190.914063 23.300781-60.824218 60.824219-60.824218 159.792969 0 220.617188 30.410156 30.410156 70.367188 45.613281 110.308594 45.617187 39.953125.003907 79.894531-15.199219 110.308594-45.617187 50.8125-50.8125 60.445312-129.234375 23.425781-190.703125-2.847656-4.730469-1.324219-10.875 3.40625-13.726563 4.730469-2.847656 10.878906-1.320312 13.726563 3.40625 19.914062 33.066406 28.421874 72.511719 23.957031 111.066406-4.601563 39.75-22.019531 75.746094-50.375 104.097657-34.308594 34.3125-79.378907 51.46875-124.449219 51.46875zm0 0"/><path d="m216.042969 234.101562c-5.523438 0-10-4.476562-10-10 0-2.242187-1.824219-4.0625-4.0625-4.0625-2.242188 0-4.0625 1.820313-4.0625 4.0625 0 5.523438-4.476563 10-10 10-5.523438 0-10-4.476562-10-10 0-13.269531 10.792969-24.0625 24.0625-24.0625 13.265625 0 24.0625 10.792969 24.0625 24.0625 0 5.523438-4.480469 10-10 10zm0 0"/><path d="m328.769531 234.101562c-5.523437 0-10-4.476562-10-10 0-2.242187-1.824219-4.0625-4.0625-4.0625-2.242187 0-4.0625 1.820313-4.0625 4.0625 0 5.523438-4.476562 10-10 10-5.523437 0-10-4.476562-10-10 0-13.269531 10.792969-24.0625 24.0625-24.0625 13.265625 0 24.0625 10.792969 24.0625 24.0625 0 5.523438-4.480469 10-10 10zm0 0"/><path d="m258.34375 344.988281c-27.960938 0-50.710938-22.75-50.710938-50.710937 0-5.519532 4.476563-10 10-10 5.523438 0 10 4.480468 10 10 0 16.9375 13.777344 30.710937 30.710938 30.710937s30.710938-13.773437 30.710938-30.710937c0-5.519532 4.476562-10 10-10 5.519531 0 10 4.480468 10 10 0 27.964844-22.75 50.710937-50.710938 50.710937zm0 0"/><path d="m256 60c-5.523438 0-10-4.476562-10-10v-40c0-5.523438 4.476562-10 10-10s10 4.476562 10 10v40c0 5.523438-4.476562 10-10 10zm0 0"/><path d="m256 512c-5.523438 0-10-4.476562-10-10v-40c0-5.523438 4.476562-10 10-10s10 4.476562 10 10v40c0 5.523438-4.476562 10-10 10zm0 0"/><path d="m502 266h-40c-5.523438 0-10-4.476562-10-10s4.476562-10 10-10h40c5.523438 0 10 4.476562 10 10s-4.476562 10-10 10zm0 0"/><path d="m50 266h-40c-5.523438 0-10-4.476562-10-10s4.476562-10 10-10h40c5.523438 0 10 4.476562 10 10s-4.476562 10-10 10zm0 0"/><path d="m401.664062 120.335938c-2.558593 0-5.117187-.976563-7.070312-2.929688-3.90625-3.902344-3.90625-10.234375 0-14.140625l28.285156-28.285156c3.902344-3.90625 10.234375-3.90625 14.140625 0s3.90625 10.238281 0 14.140625l-28.285156 28.285156c-1.953125 1.953125-4.511719 2.929688-7.070313 2.929688zm0 0"/><path d="m82.050781 439.949219c-2.558593 0-5.117187-.976563-7.070312-2.929688-3.90625-3.90625-3.90625-10.238281 0-14.144531l28.285156-28.28125c3.90625-3.90625 10.238281-3.90625 14.140625 0 3.90625 3.902344 3.90625 10.234375 0 14.140625l-28.285156 28.285156c-1.949219 1.953125-4.511719 2.929688-7.070313 2.929688zm0 0"/><path d="m429.949219 439.949219c-2.558594 0-5.121094-.976563-7.070313-2.929688l-28.285156-28.285156c-3.90625-3.90625-3.90625-10.238281 0-14.140625 3.902344-3.90625 10.234375-3.90625 14.140625 0l28.285156 28.28125c3.90625 3.90625 3.90625 10.238281 0 14.144531-1.953125 1.953125-4.511719 2.929688-7.070312 2.929688zm0 0"/><path d="m110.335938 120.335938c-2.558594 0-5.117188-.976563-7.070313-2.929688l-28.285156-28.285156c-3.90625-3.902344-3.90625-10.234375 0-14.140625s10.238281-3.90625 14.140625 0l28.285156 28.285156c3.90625 3.902344 3.90625 10.234375 0 14.140625-1.953125 1.953125-4.511719 2.929688-7.070312 2.929688zm0 0"/></svg>